<svg xmlns="http://www.w3.org/2000/svg" viewBox="0 0 48 32">
  <rect width="48" height="32" fill="#012169"/>
  <polygon points="0,0 5,0 48,27 48,32 43,32 0,5" fill="#ffffff"/>
  <polygon points="48,0 43,0 0,27 0,32 5,32 48,5" fill="#ffffff"/>
  <polygon points="0,0 2.5,0 48,28.5 48,32 45.5,32 0,3.5" fill="#c8102e"/>
  <polygon points="48,0 45.5,0 0,28.5 0,32 2.5,32 48,3.5" fill="#c8102e"/>
  <rect x="19" width="10" height="32" fill="#ffffff"/>
  <rect y="11" width="48" height="10" fill="#ffffff"/>
  <rect x="21" width="6" height="32" fill="#c8102e"/>
  <rect y="13" width="48" height="6" fill="#c8102e"/>
</svg>
