<svg xmlns="http://www.w3.org/2000/svg" viewBox="0 0 48 32">
  <rect width="48" height="32" fill="#ffffff"/>
  <g transform="translate(24 16)">
    <path d="M0 -6a6 6 0 0 1 0 12a6 6 0 0 1 0 -12z" fill="#cd2e3a"/>
    <path d="M0 6a6 6 0 0 1 0 -12a3 3 0 0 0 0 6a3 3 0 0 1 0 6z" fill="#0047a0"/>
  </g>
  <g stroke="#111111" stroke-width="1.2">
    <line x1="8" y1="7" x2="13" y2="7"/>
    <line x1="8" y1="9" x2="13" y2="9"/>
    <line x1="8" y1="11" x2="13" y2="11"/>
    <line x1="35" y1="21" x2="40" y2="21"/>
    <line x1="35" y1="23" x2="40" y2="23"/>
    <line x1="35" y1="25" x2="40" y2="25"/>
    <line x1="35" y1="7" x2="37.4" y2="7"/>
    <line x1="38.2" y1="7" x2="40.6" y2="7"/>
    <line x1="35" y1="9" x2="37.4" y2="9"/>
    <line x1="38.2" y1="9" x2="40.6" y2="9"/>
    <line x1="35" y1="11" x2="37.4" y2="11"/>
    <line x1="38.2" y1="11" x2="40.6" y2="11"/>
    <line x1="8" y1="21" x2="10.4" y2="21"/>
    <line x1="11.2" y1="21" x2="13.6" y2="21"/>
    <line x1="8" y1="23" x2="10.4" y2="23"/>
    <line x1="11.2" y1="23" x2="13.6" y2="23"/>
    <line x1="8" y1="25" x2="10.4" y2="25"/>
    <line x1="11.2" y1="25" x2="13.6" y2="25"/>
  </g>
</svg>
