<svg viewBox="0 0 160 200" width="68" height="85" xmlns="http://www.w3.org/2000/svg">
  <defs>
    <radialGradient id="rb2" cx="50%" cy="38%" r="58%"><stop offset="0%" stop-color="#ddeeff"></stop><stop offset="100%" stop-color="#a8c4e8"></stop></radialGradient>
    <radialGradient id="rh2" cx="44%" cy="35%" r="56%"><stop offset="0%" stop-color="#e0eeff"></stop><stop offset="100%" stop-color="#9cbcdc"></stop></radialGradient>
    <radialGradient id="rl2" cx="50%" cy="25%" r="75%"><stop offset="0%" stop-color="#60a5fa"></stop><stop offset="100%" stop-color="#1d4ed8"></stop></radialGradient>
    <radialGradient id="rs2" cx="50%" cy="50%" r="50%"><stop offset="0%" stop-color="#08122a"></stop><stop offset="100%" stop-color="#030a18"></stop></radialGradient>
    <filter id="fd2"><feDropShadow dx="0" dy="3" stdDeviation="4" flood-color="rgba(37,99,235,.22)"></feDropShadow></filter>
    <filter id="fe2"><feGaussianBlur stdDeviation="2" result="b"></feGaussianBlur><feMerge><feMergeNode in="b"></feMergeNode><feMergeNode in="SourceGraphic"></feMergeNode></feMerge></filter>
    <clipPath id="rc3"><rect x="44" y="50" width="72" height="46" rx="12"></rect></clipPath>
  </defs>
  <rect x="69" y="115" width="22" height="12" rx="6" fill="#bcd0e8"></rect>
  <ellipse cx="80" cy="157" rx="40" ry="34" fill="url(#rb2)" filter="url(#fd2)"></ellipse>
  <rect x="54" y="148" width="52" height="28" rx="11" fill="url(#rl2)"></rect>
  <rect x="57" y="151" width="46" height="10" rx="6" fill="rgba(255,255,255,.18)"></rect>
  <circle cx="68" cy="166" r="2.5" fill="rgba(255,255,255,.52)"></circle>
  <circle cx="80" cy="166" r="2.5" fill="rgba(255,255,255,.52)"></circle>
  <circle cx="92" cy="166" r="2.5" fill="rgba(255,255,255,.52)"></circle>
  <ellipse cx="34" cy="145" rx="9" ry="22" fill="url(#rb2)" filter="url(#fd2)" transform="rotate(-30,34,145)"></ellipse>
  <ellipse cx="34" cy="160" rx="7" ry="5" fill="url(#rl2)" opacity=".6" transform="rotate(-30,34,160)"></ellipse>
  <ellipse cx="126" cy="150" rx="9" ry="22" fill="url(#rb2)" filter="url(#fd2)"></ellipse>
  <ellipse cx="126" cy="163" rx="7" ry="5" fill="url(#rl2)" opacity=".6"></ellipse>
  <rect x="62" y="184" width="16" height="17" rx="8" fill="url(#rb2)"></rect>
  <rect x="82" y="184" width="16" height="17" rx="8" fill="url(#rb2)"></rect>
  <rect x="62" y="192" width="16" height="9" rx="5" fill="url(#rl2)" opacity=".6"></rect>
  <rect x="82" y="192" width="16" height="9" rx="5" fill="url(#rl2)" opacity=".6"></rect>
  <ellipse cx="80" cy="80" rx="48" ry="42" fill="url(#rh2)" filter="url(#fd2)"></ellipse>
  <ellipse cx="66" cy="61" rx="16" ry="11" fill="rgba(255,255,255,.42)" transform="rotate(-18,66,61)"></ellipse>
  <ellipse cx="80" cy="114" rx="30" ry="8" fill="url(#rl2)" opacity=".65"></ellipse>
  <rect x="44" y="50" width="72" height="46" rx="12" fill="url(#rs2)"></rect>
  <rect x="46" y="52" width="68" height="42" rx="10" fill="none" stroke="rgba(59,130,246,.35)" stroke-width="1"></rect>
  <g clip-path="url(#rc3)">
    <rect x="44" y="50" width="72" height="4" fill="rgba(59,130,246,.18)" rx="2">
      <animateTransform attributeName="transform" type="translate" from="0,0" to="0,44" dur="2.6s" repeatCount="indefinite"></animateTransform>
    </rect>
  </g>
  <circle cx="63" cy="73" r="9" fill="#3b82f6" filter="url(#fe2)" opacity=".9" id="eyeL">
    <animate attributeName="r" values="9;9;9;9;9;2;9" dur="5s" repeatCount="indefinite"></animate>
    <animate attributeName="opacity" values=".9;.9;.9;.9;.9;.1;.9" dur="5s" repeatCount="indefinite"></animate>
  </circle>
  <circle cx="63" cy="73" r="5" fill="#1a3a8f"></circle>
  <circle cx="61" cy="71" r="2.2" fill="rgba(255,255,255,.65)"></circle>
  <circle cx="97" cy="73" r="9" fill="#3b82f6" filter="url(#fe2)" opacity=".9" id="eyeR">
    <animate attributeName="r" values="9;9;9;9;9;2;9" dur="5s" repeatCount="indefinite"></animate>
    <animate attributeName="opacity" values=".9;.9;.9;.9;.9;.1;.9" dur="5s" repeatCount="indefinite"></animate>
  </circle>
  <circle cx="97" cy="73" r="5" fill="#1a3a8f"></circle>
  <circle cx="95" cy="71" r="2.2" fill="rgba(255,255,255,.65)"></circle>
  <rect x="71" y="89" width="18" height="3" rx="1.5" fill="#1d4ed8" opacity=".6"></rect>
  <line x1="80" y1="38" x2="80" y2="18" stroke="#a0bce0" stroke-width="2.5" stroke-linecap="round"></line>
  <circle cx="80" cy="13" r="6" fill="#4a9af5">
    <animate attributeName="fill" values="#4a9af5;#06b6d4;#4a9af5" dur="2s" repeatCount="indefinite"></animate>
  </circle>
  <circle cx="80" cy="13" r="3.5" fill="#93c5fd"></circle>
  <circle cx="29" cy="80" r="6.5" fill="#c4d8f0"></circle><circle cx="29" cy="80" r="4" fill="url(#rl2)" opacity=".55"></circle>
  <circle cx="131" cy="80" r="6.5" fill="#c4d8f0"></circle><circle cx="131" cy="80" r="4" fill="url(#rl2)" opacity=".55"></circle>
  <line x1="112" y1="73" x2="165" y2="73" stroke="url(#rayGrad)" stroke-width="1.5" stroke-linecap="round" opacity=".0" id="scanRay">
    <animate attributeName="opacity" values="0;0;0;0;0;0;0;0;0;0;0;0;0;0;0;0;0;0;0;0" dur="1s" id="rayAnim"></animate>
  </line>
  <defs><linearGradient id="rayGrad" x1="0%" y1="0%" x2="100%" y2="0%"><stop offset="0%" stop-color="#3b82f6" stop-opacity=".9"></stop><stop offset="100%" stop-color="#06b6d4" stop-opacity="0"></stop></linearGradient></defs>
</svg>
